<?xml version="1.0" encoding="utf-8"?>
<!-- Generator: Adobe Illustrator 16.0.0, SVG Export Plug-In . SVG Version: 6.00 Build 0)  -->
<!DOCTYPE svg PUBLIC "-//W3C//DTD SVG 1.1//EN" "http://www.w3.org/Graphics/SVG/1.1/DTD/svg11.dtd">
<svg version="1.1" id="sushi" xmlns="http://www.w3.org/2000/svg" xmlns:xlink="http://www.w3.org/1999/xlink" x="0px" y="0px"
	 width="284px" height="312px" viewBox="0 0 284 312" enable-background="new 0 0 284 312" xml:space="preserve">
<g id="sushi_parts">
	<path fill="#FFFFFF" d="M94.272,19.636c-33.408,0-61.363,15.681-61.363,34.091c0,18.41,27.955,34.091,61.363,34.091
		c33.409,0,61.364-15.681,61.364-34.091C155.637,35.317,127.681,19.636,94.272,19.636"/>
	<path fill="#F04B4D" d="M94.272,60.545c12.954,0,20.455-5.453,20.455-6.818c0-1.365-7.501-6.818-20.455-6.818
		c-12.954,0-20.454,5.453-20.454,6.818C73.818,55.092,81.319,60.545,94.272,60.545"/>
	<path fill="#014463" d="M94.272,74.182c-19.771,0-34.091-8.862-34.091-20.454c0-11.593,14.319-20.455,34.091-20.455
		c19.772,0,34.091,8.862,34.091,20.455C128.364,65.319,114.045,74.182,94.272,74.182 M94.272,46.909
		c-12.954,0-20.454,5.453-20.454,6.818c0,1.365,7.5,6.818,20.454,6.818c12.954,0,20.455-5.453,20.455-6.818
		C114.728,52.362,107.227,46.909,94.272,46.909"/>
	<path fill="#676A75" d="M155.637,81.683C142,93.954,120.181,101.455,94.272,101.455c-25.907,0-47.727-7.5-61.363-19.772v40.227
		c0,18.41,27.955,34.091,61.363,34.091c33.409,0,61.364-15.681,61.364-34.091V81.683z"/>
	<path fill="#3E4251" d="M107.909,112.364v22.499c0,7.5-6.136,13.636-13.637,13.636c-33.408,0-61.363-15.681-61.363-34.091v7.501
		c0,18.41,27.955,34.091,61.363,34.091c4.774,0,9.545,0,13.637-0.683c27.272-3.409,47.728-17.045,47.728-33.408V81.683
		c-8.862,8.183-21.82,14.319-36.818,17.045C112.683,100.093,107.909,105.546,107.909,112.364"/>
	<path fill="#D5E3EF" d="M148.133,37.364c0,2.044,0.686,4.092,0.686,5.453C148.818,63.272,117.454,81,80.636,81
		c-10.91,0-21.819-1.361-31.364-4.092c11.592,6.818,27.273,10.91,45,10.91c33.409,0,61.364-15.681,61.364-34.091
		C155.637,47.592,152.906,42.138,148.133,37.364"/>
	<path fill="#014463" d="M94.272,6c-42.274,0-75,21.137-75,47.728v68.182c0,26.59,32.726,47.728,75,47.728
		c42.274,0,75-21.137,75-47.728V53.728C169.272,27.137,136.547,6,94.272,6 M94.272,19.636c33.409,0,61.364,15.681,61.364,34.091
		c0,18.41-27.956,34.091-61.364,34.091c-33.408,0-61.363-15.681-61.363-34.091C32.909,35.317,60.864,19.636,94.272,19.636
		 M155.637,115.091v6.818c0,18.41-27.956,34.091-61.364,34.091c-33.408,0-61.363-15.681-61.363-34.091v-6.818V81.683
		c13.636,12.271,35.456,19.772,61.363,19.772c25.908,0,47.728-7.5,61.364-19.772V115.091z"/>
	<path fill="#FFFFFF" d="M203.363,101.455c-33.411,0-61.363,15.68-61.363,34.091s27.952,34.091,61.363,34.091
		c33.412,0,61.364-15.681,61.364-34.091S236.775,101.455,203.363,101.455"/>
	<path fill="#D5E3EF" d="M257.224,119.183c0.686,2.044,0.686,3.409,0.686,5.453c0,20.455-31.368,38.183-68.182,38.183
		c-10.913,0-21.819-1.365-31.368-4.088c11.593,6.817,27.273,10.906,45.004,10.906c33.405,0,61.364-15.681,61.364-34.091
		C264.728,129.41,261.997,123.957,257.224,119.183"/>
	<path fill="#F04B4D" d="M203.363,142.364c12.958,0,20.455-5.454,20.455-6.818s-7.497-6.818-20.455-6.818
		c-12.957,0-20.454,5.453-20.454,6.818S190.406,142.364,203.363,142.364"/>
	<path fill="#014463" d="M203.363,156c-19.775,0-34.091-8.862-34.091-20.455s14.315-20.455,34.091-20.455
		s34.091,8.862,34.091,20.455S223.139,156,203.363,156 M203.363,128.728c-12.957,0-20.454,5.453-20.454,6.818
		s7.497,6.818,20.454,6.818c12.958,0,20.455-5.454,20.455-6.818S216.321,128.728,203.363,128.728"/>
	<path fill="#676A75" d="M264.728,163.497c-13.637,12.278-35.456,19.775-61.364,19.775c-25.907,0-47.727-7.497-61.363-19.775v40.23
		c0,18.41,27.952,34.091,61.363,34.091c33.412,0,61.364-15.681,61.364-34.091V163.497z"/>
	<path fill="#3E4251" d="M227.913,180.543C221.774,181.908,217,187.361,217,194.18v22.505c0,7.497-6.133,13.636-13.637,13.636
		c-8.183,0-16.359-1.364-23.863-2.729c-6.133-1.365-10.228-6.818-10.228-12.957v-36.135c-10.906-3.409-20.454-8.862-27.272-15.002
		v40.23c0,11.592,10.913,21.819,27.272,27.952c9.549,3.408,21.819,6.139,34.091,6.139c4.774,0,9.549,0,13.637-0.68
		c27.272-3.408,47.728-17.045,47.728-33.411v-40.23C255.865,171.681,242.908,177.134,227.913,180.543"/>
	<path fill="#014463" d="M203.363,87.818c-42.273,0-75,21.137-75,47.727v68.182c0,26.593,32.726,47.728,75,47.728
		c42.274,0,75-21.135,75-47.728v-68.182C278.363,108.955,245.638,87.818,203.363,87.818 M203.363,101.455
		c33.412,0,61.364,15.68,61.364,34.091s-27.952,34.091-61.364,34.091c-33.411,0-61.363-15.681-61.363-34.091
		S169.952,101.455,203.363,101.455 M264.728,190.091v13.637c0,18.41-27.952,34.091-61.364,34.091
		c-33.411,0-61.363-15.681-61.363-34.091v-13.637v-26.594c13.637,12.278,35.456,19.775,61.363,19.775
		c25.908,0,47.728-7.497,61.364-19.775V190.091z"/>
	<path fill="#FFFFFF" d="M80.636,156c-33.408,0-61.364,15.681-61.364,34.091s27.956,34.091,61.364,34.091
		c33.409,0,61.364-15.681,61.364-34.091S114.045,156,80.636,156"/>
	<path fill="#F04B4D" d="M80.636,196.909c12.954,0,20.455-5.453,20.455-6.818s-7.5-6.818-20.455-6.818
		c-12.954,0-20.455,5.453-20.455,6.818S67.683,196.909,80.636,196.909"/>
	<path fill="#014463" d="M80.636,210.545c-19.772,0-34.091-8.861-34.091-20.454c0-11.592,14.319-20.454,34.091-20.454
		s34.091,8.862,34.091,20.454C114.728,201.684,100.408,210.545,80.636,210.545 M80.636,183.272c-12.954,0-20.455,5.453-20.455,6.818
		s7.501,6.818,20.455,6.818c12.954,0,20.455-5.453,20.455-6.818S93.59,183.272,80.636,183.272"/>
	<path fill="#676A75" d="M142,218.043c-13.636,12.277-35.456,19.775-61.364,19.775s-47.727-7.498-61.364-19.775v40.229
		c0,18.411,27.956,34.091,61.364,34.091c33.409,0,61.364-15.68,61.364-34.091V218.043z"/>
	<path fill="#3E4251" d="M94.272,248.725v22.506c0,7.497-6.135,13.636-13.636,13.636c-33.408,0-61.364-15.687-61.364-34.091v7.497
		c0,18.411,27.956,34.091,61.364,34.091c4.774,0,9.545,0,13.636-0.679C121.545,288.275,142,274.639,142,258.272v-40.229
		c-8.862,8.183-21.819,14.322-36.817,17.045C99.047,236.453,94.272,241.906,94.272,248.725"/>
	<path fill="#D5E3EF" d="M134.5,173.725c0.682,2.051,0.682,3.409,0.682,5.46c0,20.454-31.364,38.179-68.182,38.179
		c-10.91,0-21.819-1.364-31.364-4.088c11.592,6.818,27.272,10.906,45,10.906c33.409,0,61.364-15.681,61.364-34.091
		C142,183.952,139.273,178.499,134.5,173.725"/>
	<path fill="#014463" d="M80.636,142.364c-42.274,0-75,21.133-75,47.727v68.182c0,26.594,32.726,47.728,75,47.728
		s75-21.134,75-47.728v-68.182C155.637,163.497,122.91,142.364,80.636,142.364 M80.636,156C114.045,156,142,171.681,142,190.091
		s-27.955,34.091-61.364,34.091c-33.408,0-61.364-15.681-61.364-34.091S47.228,156,80.636,156 M142,251.455v6.817
		c0,18.411-27.955,34.091-61.364,34.091c-33.408,0-61.364-15.68-61.364-34.091v-6.817v-33.412
		c13.637,12.277,35.456,19.775,61.364,19.775s47.728-7.498,61.364-19.775V251.455z"/>
</g>
</svg>
